# xmcd
#
# Track frame offsets:
#	150
#	12929
#	26096
#	37058
#	48855
#	61896
#	72539
#	82454
#	93746
#	106964
#	122183
#	131962
#	143277
#	153920
#	164749
#	177965
#	187272
#	197091
#	208424
#	218000
#	230820
#	248396
#	259594
#	271149
#	283332
#	294036
#	304511
#	320828
#	333938
#	344511
#
# Disc length: 4785 seconds
#
# Revision: 1
# Processed by: cddbd v1.5.2PL0 Copyright (c) Steve Scherf et al.
# Submitted via: audiograbber 1.83.01
#
DISCID=d612af1e
DTITLE=Diverse - Country Western 1955 - 1980 CD-1
DYEAR=1900
DGENRE=Country
TTITLE0=Ocean - Put your hand in the hand
TTITLE1=The Crests - 16 Candles
TTITLE2=Guy Mitchell - Singing the Blues
TTITLE3=Bobby Goldsboro - Muddy Mississippi Line
TTITLE4=Bene E. King - Spanisch harlem
TTITLE5=Brenda Lee - Sweet Nothin
TTITLE6=Conway Twitty - Lonely blue boy
TTITLE7=Brook Benton - It´s just a matter of time
TTITLE8=Charlie Rich - Behind closed doors
TTITLE9=George Baker - Paloma Blanca
TTITLE10=Conway Twitty - It´s only make believe
TTITLE11=Cher - The way of love
TTITLE12=Hank Locklin - Please help me im falling
TTITLE13=Roy Orbison - Workin for the man
TTITLE14=Lloyd Price - Stagger lee
TTITLE15=Marty Robbins - Just married
TTITLE16=Roy Orbison - Running scaried
TTITLE17=Sammi Smith - Help me make it throug the night
TTITLE18=Marty Robbins - Stairway of love
TTITLE19=Clint Holmes - Playground in my mind
TTITLE20=Frankie Lane - You gave me a mountain
TTITLE21=Bobby Darin - Dream lover
TTITLE22=Gene Pitney - It hurts to be in love
TTITLE23=Jack Scott - What in the world´s come over you
TTITLE24=Paul Anka - Lonely boy
TTITLE25=Bobby Rydell - We got love
TTITLE26=Cm Mc Call - Convoy
TTITLE27=Dawn - Knock three times
TTITLE28=Gailstrom - Memories are made of this
TTITLE29=Engelbert Humper Diner - Spanish eyes
EXTD=
EXTT0=
EXTT1=
EXTT2=
EXTT3=
EXTT4=
EXTT5=
EXTT6=
EXTT7=
EXTT8=
EXTT9=
EXTT10=
EXTT11=
EXTT12=
EXTT13=
EXTT14=
EXTT15=
EXTT16=
EXTT17=
EXTT18=
EXTT19=
EXTT20=
EXTT21=
EXTT22=
EXTT23=
EXTT24=
EXTT25=
EXTT26=
EXTT27=
EXTT28=
EXTT29=
PLAYORDER=
